PathFileType	3	(X/Y/Z)	D:\Jess\PFP\Labelled\PA17\20250829\SRRun01.trc
DataRate	CameraRate	NumFrames	NumMarkers	Units	OrigDataRate	OrigDataStartFrame	OrigNumFrames
250.0	250.0	4	33	mm	250.0	36250	2501
Frame#	Time	C7			T10			CLAV			LSHO			RSHO			LASIS			RASIS			LPSIS			RPSIS			LILCR			RILCR			LGTR			LTHI			LLTHI			LLEP			LPSH			LLSH			LDSH			LLMAL			LTOE			L5TH			LHEE			RGTR			RTHI			RLTHI			RLEP			RPSH			RLSH			RDSH			RLMAL			RTOE			R5TH			RHEE			
		X1	Y1	Z1	X2	Y2	Z2	X3	Y3	Z3	X4	Y4	Z4	X5	Y5	Z5	X6	Y6	Z6	X7	Y7	Z7	X8	Y8	Z8	X9	Y9	Z9	X10	Y10	Z10	X11	Y11	Z11	X12	Y12	Z12	X13	Y13	Z13	X14	Y14	Z14	X15	Y15	Z15	X16	Y16	Z16	X17	Y17	Z17	X18	Y18	Z18	X19	Y19	Z19	X20	Y20	Z20	X21	Y21	Z21	X22	Y22	Z22	X23	Y23	Z23	X24	Y24	Z24	X25	Y25	Z25	X26	Y26	Z26	X27	Y27	Z27	X28	Y28	Z28	X29	Y29	Z29	X30	Y30	Z30	X31	Y31	Z31	X32	Y32	Z32	X33	Y33	Z33	

1251	144.996	802.1843179961655	1532.086807836003	-1095.695848984783	836.4183111066982	1303.40282290509	-1029.63552424803	766.5190304918635	1442.145887322939	-1231.197318934069	635.6943049114143	1510.762323541059	-1103.777027218244	941.8157378000855	1498.757451210163	-1212.474367880632	670.8067037694519	1026.736380779476	-1202.526526417947	903.2494462218419	985.63981070101	-1222.286254901957	782.2622423725752	1092.40417247996	-1017.615288614604	818.4586254935632	1092.387476557863	-1021.871206372255	630.4432767649743	1116.920948553272	-1117.606216734715	951.4128841065756	1079.382842106166	-1177.821371469814	596.2653877536877	976.3492671274507	-1133.197855995307	696.0063614328566	815.6764940299508	-1276.408187320448	635.4560224878981	682.3651219188389	-1173.943253285944	660.4291130841158	519.9775205421955	-1222.649359209651	714.4382537168456	462.6052545593128	-1282.292391774082	655.5762653633172	318.3258359948181	-1209.580170260603	707.6160568352284	245.0495502376519	-1277.051418657553	680.3769571633989	127.3114090763498	-1240.815558845306	669.0966547503247	115.2504701958061	-1384.439633372501	641.6807237937229	84.08484003351421	-1361.116774813983	725.58218966014	78.63951859762398	-1189.530766053728	987.4820114297567	937.0496255174969	-1135.582071476256	873.3453034854571	725.6770573038483	-1167.031069359743	951.0031706913386	686.1282276498131	-1022.220135245005	921.7352335076124	530.0262706747659	-945.0734799582077	866.7568512246442	443.9131670944675	-960.2118149266709	923.1221714674696	377.9961485015714	-826.7215213543651	883.2465267214258	284.6122369553171	-834.740958322694	898.8117146372645	203.9547172964738	-731.4061214657372	887.6978847140236	63.41039638242135	-793.6434842673026	916.1485066573865	68.44691260340203	-746.1961749313219	852.1756926875315	223.388519400676	-665.9410110601934	
1252	145	801.7967166867904	1531.786539605202	-1095.622777777637	835.9961544698969	1303.17853904114	-1029.711144453174	765.7683002718609	1442.079847105646	-1230.978587996413	635.3794323716835	1510.581456556987	-1103.378441095491	940.9352571438903	1498.615116452423	-1212.597260686903	671.1086234131226	1026.987237636848	-1202.957215552314	902.9993156018859	986.4754143932645	-1222.702688510293	781.4014740568005	1092.975699381792	-1017.854609323172	817.6181464389907	1093.048405793437	-1022.046592622111	629.974539776676	1117.277437486646	-1118.631455225368	950.7759512584923	1080.572188938836	-1178.038572254473	596.0030914005291	976.5717956500305	-1134.305315859343	695.8805029693309	813.5315612707905	-1275.280299734297	634.4761727904651	681.7363453762501	-1172.348502725385	660.2345575720641	519.0478698485333	-1222.28316382996	714.9332867916286	462.7951754321941	-1282.468019906087	655.8633184053352	317.1085314779256	-1212.874196007398	708.9092491557897	245.1730269138548	-1280.991219160772	681.64129742092	126.44752902192	-1247.344738669138	672.3210655812709	117.065938323742	-1391.383280041408	644.8854217954242	85.0905887071544	-1369.103940317843	726.4501724187839	76.81004586648942	-1196.450086726016	987.5508309997023	938.558515640626	-1135.944242104381	874.9216170878409	725.7987284657322	-1167.770837610416	950.9238691685817	687.0328661301926	-1022.316573668834	921.557287715554	530.6168652498342	-945.2080825247782	867.1644629587705	443.8286626952805	-959.7102106068696	923.0621005460847	380.0714755244765	-824.9087263053887	883.923062264273	286.2853508325269	-831.9908579659102	899.437078009833	207.2614415539154	-727.541515667823	888.5046367943903	64.8383214125827	-785.5337360461438	916.2583617821437	71.08725060930004	-737.8359513135147	852.2680690123605	228.8350849907821	-663.5115421886654	
1253	145.004	801.3821492508876	1531.341567139359	-1095.55771224321	835.4932747827398	1302.78925718612	-1029.73953292145	765.0372638945842	1441.839921734798	-1230.781766428081	635.0222094487026	1510.26360768048	-1103.021915794391	940.1050391984987	1498.274222028097	-1212.697464975879	671.3802361810142	1026.945058250279	-1203.36144644351	902.7917325879006	987.2280206839598	-1223.056923295282	780.5409917281295	1093.365769640482	-1018.039389918873	816.7805864520921	1093.534962443965	-1022.167178368836	629.4454239597466	1117.367575776909	-1119.70318106464	950.1759652356864	1081.679074376576	-1178.153532915676	595.7552986735257	976.4920247286343	-1135.325015854432	695.7450501116658	811.0391377837237	-1274.010692315015	633.5052436790049	680.918928642467	-1171.015675855368	660.0663841413881	518.0429889949548	-1222.045604831573	715.4607756317387	462.8191640717393	-1282.585230213245	656.1540492881173	315.9242756571135	-1215.800120065146	710.1656779544337	245.1813790873382	-1284.388784957757	682.8519785949391	125.6005733586064	-1253.063557566169	675.4011750874347	118.5366308364403	-1397.392825618386	647.9606233435189	85.84833666869127	-1376.064190316756	727.3014814149584	75.16053131883623	-1202.46522477005	987.6486401758273	939.998713536426	-1136.280117438011	876.4503822443811	725.8479852856071	-1168.651958454894	950.814300519934	687.6825668119673	-1022.666788730855	921.3497885968445	530.8708927725705	-945.7268041860119	867.5786444618022	443.4209887928658	-959.4993487243032	922.9833182431013	381.9695476776965	-823.3644232971056	884.5841725348428	287.8023370819154	-829.3926817392246	900.0234873762297	210.560884104654	-723.7566631998752	889.3632869664896	66.3812398479302	-777.4127655559176	916.3943483836357	73.89198510909982	-729.4944728973663	852.2784379786134	234.2129441182568	-661.2694483053734	
1254	145.008	800.9360346580596	1530.755916884875	-1095.501667944385	834.9157413046502	1302.242761059352	-1029.721403709744	764.3261608796823	1441.426838712199	-1230.605629338566	634.6214379823259	1509.806471015183	-1102.709541448544	939.3239392257392	1497.739419403317	-1212.775645981411	671.6150294029844	1026.61562563449	-1203.73707118729	902.6198671284466	987.8872754087802	-1223.35021908632	779.6837777118166	1093.566255203916	-1018.177163156581	815.9475470717762	1093.838716293116	-1022.241947435843	628.8624998565381	1117.195328227253	-1120.801437220145	949.6037708819092	1082.68935102109	-1178.168485292351	595.5242093338816	976.1028963115941	-1136.244730036188	695.6029406161804	808.2360385322868	-1272.631081516975	632.5739002478562	679.9105029877398	-1169.961057030935	659.9350674104435	516.9567176846732	-1221.921730529997	716.0208835450372	462.6593438000334	-1282.636108501069	656.4506206314758	314.7463212753999	-1218.329151113924	711.3750512978661	245.0374700893481	-1287.230788720868	683.9971816237164	124.7323478005662	-1257.940449800316	678.3023513596518	119.6063778204423	-1402.451030068044	650.8662527315644	86.30832446065962	-1381.964629353724	728.1270323427026	73.6667250101044	-1207.537724827814	987.7634612952754	941.3517019185259	-1136.590719240089	877.9084240759134	725.8155115185069	-1169.670024159189	950.6759894036596	688.0604820708591	-1023.265059765688	921.1249744253043	530.7846862891932	-946.6166247102574	868.011367569967	442.693143823598	-959.5658163695055	922.8923748460642	383.6929914107599	-822.0821437209736	885.2338102102616	289.1697646112835	-826.9445181960689	900.5692971107678	213.8553335454078	-720.0576054946231	890.2756738607014	68.04542782888736	-769.310120505326	916.5673202885666	76.86425798146608	-721.2082747905363	852.2095415350663	239.509351235131	-659.204294889944	
